<svg xmlns="http://www.w3.org/2000/svg" viewBox="0 0 300.2 263.85"><defs><style>.cls-1{fill:#fff;}</style></defs><title>cart-white</title><g id="Layer_2" data-name="Layer 2"><g id="Layer_1-2" data-name="Layer 1"><path class="cls-1" d="M96.72,175.9H256.23a8.79,8.79,0,0,0,8.46-6.38L299.87,46.39a8.8,8.8,0,0,0-8.46-11.21h-215L70.15,6.89A8.78,8.78,0,0,0,61.57,0H8.8a8.8,8.8,0,1,0,0,17.59H54.51c1.11,5,30.09,135.4,31.75,142.9a26.38,26.38,0,0,0,10.49,50.59H256.23a8.8,8.8,0,0,0,0-17.59H96.75a8.8,8.8,0,0,1,0-17.59Zm7.08-17.59,176-105.54"/><path class="cls-1" d="M88,237.47a26.39,26.39,0,1,0,26.39-26.39A26.41,26.41,0,0,0,88,237.47Zm26.39-8.8a8.8,8.8,0,1,1-8.8,8.8A8.81,8.81,0,0,1,114.34,228.67Z"/><path class="cls-1" d="M212.25,237.47a26.39,26.39,0,1,0,26.39-26.39A26.41,26.41,0,0,0,212.25,237.47Zm26.39-8.8a8.8,8.8,0,1,1-8.8,8.8A8.8,8.8,0,0,1,238.64,228.67Z"/></g></g></svg>