<svg xmlns="http://www.w3.org/2000/svg" viewBox="0 0 300 263.67"><defs><style>.cls-1{fill:#cfab57;}</style></defs><title>cart-gold</title><g id="Layer_2" data-name="Layer 2"><g id="Layer_1-2" data-name="Layer 1"><path class="cls-1" d="M96.66,175.78H256.05a8.8,8.8,0,0,0,8.46-6.37l35.15-123a8.78,8.78,0,0,0-8.45-11.2H76.39L70.1,6.88A8.79,8.79,0,0,0,61.52,0H8.79a8.79,8.79,0,0,0,0,17.58H54.47c1.12,5,30.07,135.3,31.74,142.8a26.36,26.36,0,0,0,10.47,50.56H256.05a8.79,8.79,0,0,0,0-17.58H96.68a8.79,8.79,0,0,1,0-17.58Zm7.07-17.58M279.56,52.73"/><path class="cls-1" d="M87.89,237.3a26.37,26.37,0,1,0,26.37-26.36A26.4,26.4,0,0,0,87.89,237.3Zm26.37-8.78a8.79,8.79,0,1,1-8.79,8.78A8.8,8.8,0,0,1,114.26,228.52Z"/><path class="cls-1" d="M212.11,237.3a26.37,26.37,0,1,0,26.37-26.36A26.4,26.4,0,0,0,212.11,237.3Zm26.37-8.78a8.79,8.79,0,1,1-8.79,8.78A8.8,8.8,0,0,1,238.48,228.52Z"/></g></g></svg>