<svg xmlns="http://www.w3.org/2000/svg" viewBox="0 0 261.98 261.98"><defs><style>.cls-1{fill:#cfab57;}</style></defs><title>faq-gold</title><g id="Layer_2" data-name="Layer 2"><g id="Layer_1-2" data-name="Layer 1"><path class="cls-1" d="M129.24,0A131,131,0,1,0,262,129.23,131,131,0,0,0,129.24,0Zm-.39,210.71h-.72c-11.14-.33-19-8.54-18.68-19.51.31-10.79,8.36-18.62,19.13-18.62h.64c11.45.34,19.22,8.47,18.9,19.76C147.8,203.17,139.88,210.72,128.85,210.72Zm46.86-93c-2.62,3.73-8.38,8.35-15.64,14l-8,5.52c-4.39,3.41-7,6.62-8,9.78-.79,2.49-1.17,3.14-1.24,8.2v1.28H112.28l.09-2.58c.37-10.61.63-16.86,5-22,6.9-8.1,22.13-17.91,22.78-18.32a24.21,24.21,0,0,0,5.39-5.52c3.2-4.41,4.62-7.89,4.62-11.31a22.07,22.07,0,0,0-4.19-13c-2.67-3.76-7.75-5.67-15.1-5.67s-12.28,2.31-15.26,7A28.34,28.34,0,0,0,111,100.34v1.3H79.55l.06-1.36C80.42,81,87.3,67.13,100.05,59c8-5.16,18-7.77,29.6-7.77,15.23,0,28.08,3.7,38.19,11s15.45,18.47,15.45,32.91A37.64,37.64,0,0,1,175.71,117.72Z"/></g></g></svg>