<svg xmlns="http://www.w3.org/2000/svg" viewBox="0 0 273 273"><title>favourite-clicked</title><g id="Layer_2" data-name="Layer 2"><g id="Layer_1-2" data-name="Layer 1"><path d="M136.5,190.32l-8.19-8.19C97.89,155.22,78,137.08,78,114.86a31.72,31.72,0,0,1,32.17-32.18A35.16,35.16,0,0,1,136.5,95a35.16,35.16,0,0,1,26.33-12.28A31.72,31.72,0,0,1,195,114.86c0,22.22-19.89,40.36-50.31,67.27Z"/><path d="M136.5,273C61.23,273,0,211.77,0,136.5S61.23,0,136.5,0,273,61.23,273,136.5,211.77,273,136.5,273Zm0-256.29A119.79,119.79,0,1,0,256.29,136.5,119.93,119.93,0,0,0,136.5,16.71Z"/></g></g></svg>