<svg xmlns="http://www.w3.org/2000/svg" viewBox="0 0 217.94 300"><defs><style>.cls-1{fill:#fff;}.cls-2{fill:none;}</style></defs><title>order-white</title><g id="Layer_2" data-name="Layer 2"><g id="Layer_1-2" data-name="Layer 1"><path class="cls-1" d="M183.2,0H34.73A34.73,34.73,0,0,0,0,34.74V47.17H63.34a9.08,9.08,0,0,1,9,8v2.18a9.08,9.08,0,0,1-9,8H0V83.49H63.34a9.09,9.09,0,0,1,9,8v2.17a9.09,9.09,0,0,1-9,8H0v18.16H63.34a9.08,9.08,0,0,1,9,8V130a9.08,9.08,0,0,1-9,8H0V265.27A34.73,34.73,0,0,0,34.73,300H183.2a34.73,34.73,0,0,0,34.74-34.73V34.74A34.74,34.74,0,0,0,183.2,0Z"/><path class="cls-2" d="M72.35,57.34V55.16a9.08,9.08,0,0,0-9-8H0V65.33H63.34A9.08,9.08,0,0,0,72.35,57.34Z"/><path class="cls-2" d="M72.35,93.66V91.49a9.09,9.09,0,0,0-9-8H0v18.17H63.34A9.09,9.09,0,0,0,72.35,93.66Z"/><path class="cls-2" d="M72.35,130v-2.17a9.08,9.08,0,0,0-9-8H0V138H63.34A9.08,9.08,0,0,0,72.35,130Z"/></g></g></svg>