<svg xmlns="http://www.w3.org/2000/svg" viewBox="0 0 216.2 297.6"><defs><style>.cls-1{fill:#cfab57;}</style></defs><title>order-gold</title><g id="Layer_2" data-name="Layer 2"><g id="Layer_1-2" data-name="Layer 1"><path class="cls-1" d="M181.74,0H34.47A34.46,34.46,0,0,0,0,34.46V46.79H62.83a9,9,0,0,1,8.94,7.93v2.16a9,9,0,0,1-8.94,7.93H0v18H62.83a9,9,0,0,1,8.94,7.93v2.15a9,9,0,0,1-8.94,7.93H0v18H62.83a9,9,0,0,1,8.94,7.93V129a9,9,0,0,1-8.94,7.93H0V263.15A34.46,34.46,0,0,0,34.47,297.6H181.74a34.45,34.45,0,0,0,34.46-34.45V34.46A34.46,34.46,0,0,0,181.74,0Z"/></g></g></svg>