<svg xmlns="http://www.w3.org/2000/svg" viewBox="0 0 282.49 271.17"><defs><style>.cls-1{fill:#fff;}</style></defs><title>wallet-white</title><g id="Layer_2" data-name="Layer 2"><g id="Layer_1-2" data-name="Layer 1"><path class="cls-1" d="M66,51.62,178.63,20.88l-6-12a15.87,15.87,0,0,0-21.26-7.17L50.6,51.62Z"/><path class="cls-1" d="M213.59,21.77a15.9,15.9,0,0,0-4.19.57l-26.46,7.23-80.79,22H233.83l-5-18.15A15.84,15.84,0,0,0,213.59,21.77Z"/><path class="cls-1" d="M250.35,62.72H15.89A15.9,15.9,0,0,0,.57,74.43,16.36,16.36,0,0,0,0,78.58V255.31a15.87,15.87,0,0,0,15.86,15.86H250.32a15.86,15.86,0,0,0,15.86-15.86V211.06H172.06a27,27,0,0,1-27-27V148.82a27,27,0,0,1,23.73-26.75,28.06,28.06,0,0,1,3.2-.19h94.15V78.58A15.81,15.81,0,0,0,250.35,62.72Z"/><path class="cls-1" d="M277.32,137.05a15.9,15.9,0,0,0-5.55-3.3,16.16,16.16,0,0,0-5.14-.86H172.06a15.87,15.87,0,0,0-15.86,15.86v35.31a15.87,15.87,0,0,0,15.86,15.86h94.57a16.43,16.43,0,0,0,5.14-.85,15.46,15.46,0,0,0,5.55-3.3,15.83,15.83,0,0,0,5.17-11.71V148.75A15.79,15.79,0,0,0,277.32,137.05Zm-72.14,32.51a7.93,7.93,0,0,1-7.93,7.93H192a7.94,7.94,0,0,1-7.93-7.93V164.3a7.78,7.78,0,0,1,3-6.22,8,8,0,0,1,4.88-1.71h5.27a7.93,7.93,0,0,1,7.93,7.93v5.26Z"/></g></g></svg>